# xmcd
#
# Track frame offsets:
#	150
#	8918
#	16998
#	32549
#	47356
#	56860
#	75462
#	98708
#	119036
#	137634
#	160863
#	182938
#	201203
#	215928
#	230183
#	244587
#	259974
#	278381
#
# Disc length: 3942 seconds
#
# Revision: 1
# Processed by: cddbd v1.5.1PL2 Copyright (c) Steve Scherf et al.
# Submitted via: EasyCDDAExtractor 9.1.3.1
#
DISCID=fc0f6412
DTITLE=Various Artist - Masters Of The Steel Stringed Guitar
DYEAR=2000
DGENRE=Country
TTITLE0=Wayne C. Henderson, David and Linda Lay) - I Don't Love Nobody
TTITLE1=Wayne C. Henderson, David and Linda Lay) - Cannonball Blues
TTITLE2=Wayne C. Henderson, David and Linda Lay) - A Coat Of Many Colors
TTITLE3=Wayne C. Henderson, Daivd and Linda Lay) - Carter Family Medley
TTITLE4=Wayne C. Henderson, David and Linda Lay) - Alabama Jubilee
TTITLE5=John Cephas and Phil Wiggins - Walking Mama
TTITLE6=John Cephas and Phil Wiggins - Prison Blues
TTITLE7=John Cephas, Phile Wiggins, Eddie Pennington and Johnny Bellar - John He
TTITLE7=nry
TTITLE8=Eddie Pennington - Lost John
TTITLE9=Eddie Pennington, Johnny Bellar, John Cephas, David and Linda Lay - Dark
TTITLE9=As A Dungeon
TTITLE10=Eddie Pennington and Johnny Bellar - Eddie's Medley
TTITLE11=Eddie Pennington, Johnny Bellar and Linda Lay - I'll See You In My Drea
TTITLE11=ms
TTITLE12=Johnny Bellar - Northern Lights
TTITLE13=Johnny Bellar, David and Linda Lay - Heaven
TTITLE14=Johnny Bellar, David and Linda Lay - Aloha Oe
TTITLE15=Johnny Bellar, David and Linda Lay - Sweet Dreams
TTITLE16=Johnny Bellar, Wayne C Henderson, John Cephas, Phil Wiggins, Eddie Pe
TTITLE16=nnington, David and Linda Lay - Guitar Rag
TTITLE17=Eddie Pennington, Johnny Bellar, John Cephas, David and Linda Lay - Whe
TTITLE17=re The Roses Never Fade
EXTD=
EXTT0=
EXTT1=
EXTT2=
EXTT3=
EXTT4=
EXTT5=
EXTT6=
EXTT7=
EXTT8=
EXTT9=
EXTT10=
EXTT11=
EXTT12=
EXTT13=
EXTT14=
EXTT15=
EXTT16=
EXTT17=
PLAYORDER=
